<svg xmlns="http://www.w3.org/2000/svg" width="330" height="80" viewBox="0 0 330 80">
  <g transform="translate(-555 -45)">
    <g transform="translate(675.369 100)">
      <g transform="translate(-112.369 -30)" style="isolation: isolate">
        <g>
          <g transform="translate(0 -5)">
            <rect width="330" height="80" rx="10" transform="translate(-8 -20)" fill="#027991"/>
            <g transform="translate(0 -17.344)">
              <path d="M194.45,24.375a2.075,2.075,0,1,1-2.075-2.075,2.075,2.075,0,0,1,2.075,2.075" transform="translate(-84.794 -13.079)" fill="#ffd000"/>
              <path d="M192.375,30.6a2.075,2.075,0,1,0,2.075,2.075,2.075,2.075,0,0,0-2.075-2.075" transform="translate(-84.794 -16.595)" fill="#ffd000"/>
              <path d="M201.275,22.3a2.075,2.075,0,1,0,2.075,2.075,2.075,2.075,0,0,0-2.075-2.075" transform="translate(-88.564 -13.079)" fill="#ffd000"/>
              <path d="M201.275,30.6a2.075,2.075,0,1,0,2.075,2.075,2.075,2.075,0,0,0-2.075-2.075" transform="translate(-88.564 -16.595)" fill="#ffd000"/>
              <path d="M210.075,22.3a2.075,2.075,0,1,0,2.075,2.075,2.075,2.075,0,0,0-2.075-2.075" transform="translate(-92.292 -13.079)" fill="#ffd000"/>
              <path d="M210.075,30.6a2.075,2.075,0,1,0,2.075,2.075,2.075,2.075,0,0,0-2.075-2.075" transform="translate(-92.292 -16.595)" fill="#ffd000"/>
              <path d="M218.975,22.3a2.075,2.075,0,1,0,2.075,2.075,2.075,2.075,0,0,0-2.075-2.075" transform="translate(-96.062 -13.079)" fill="#ffd000"/>
              <path d="M218.975,30.6a2.075,2.075,0,1,0,2.075,2.075,2.075,2.075,0,0,0-2.075-2.075" transform="translate(-96.062 -16.595)" fill="#ffd000"/>
              <path d="M210.075,39.1a2.075,2.075,0,1,0,2.075,2.075,2.075,2.075,0,0,0-2.075-2.075" transform="translate(-92.292 -20.196)" fill="#ffd000"/>
              <path d="M210.075,47.5a2.075,2.075,0,1,0,2.075,2.075,2.075,2.075,0,0,0-2.075-2.075" transform="translate(-92.292 -23.754)" fill="#ffd000"/>
              <path d="M218.975,39.1a2.075,2.075,0,1,0,2.075,2.075,2.075,2.075,0,0,0-2.075-2.075" transform="translate(-96.062 -20.196)" fill="#ffd000"/>
              <path d="M218.975,47.5a2.075,2.075,0,1,0,2.075,2.075,2.075,2.075,0,0,0-2.075-2.075" transform="translate(-96.062 -23.754)" fill="#ffd000"/>
              <path d="M210.075,55.9a2.075,2.075,0,1,0,2.075,2.075,2.075,2.075,0,0,0-2.075-2.075" transform="translate(-92.292 -27.312)" fill="#ffd000"/>
              <path d="M210.075,64.3a2.075,2.075,0,1,0,2.075,2.075,2.075,2.075,0,0,0-2.075-2.075" transform="translate(-92.292 -30.87)" fill="#ffd000"/>
              <path d="M218.975,55.9a2.075,2.075,0,1,0,2.075,2.075,2.075,2.075,0,0,0-2.075-2.075" transform="translate(-96.062 -27.312)" fill="#ffd000"/>
              <path d="M218.975,64.3a2.075,2.075,0,1,0,2.075,2.075,2.075,2.075,0,0,0-2.075-2.075" transform="translate(-96.062 -30.87)" fill="#ffd000"/>
              <path d="M210.075,72.7a2.075,2.075,0,1,0,2.075,2.075,2.075,2.075,0,0,0-2.075-2.075" transform="translate(-92.292 -34.428)" fill="#ffd000"/>
              <path d="M210.075,81.1a2.075,2.075,0,1,0,2.075,2.075,2.075,2.075,0,0,0-2.075-2.075" transform="translate(-92.292 -37.987)" fill="#ffd000"/>
              <path d="M218.975,72.7a2.075,2.075,0,1,0,2.075,2.075,2.075,2.075,0,0,0-2.075-2.075" transform="translate(-96.062 -34.428)" fill="#ffd000"/>
              <path d="M218.975,81.1a2.075,2.075,0,1,0,2.075,2.075,2.075,2.075,0,0,0-2.075-2.075" transform="translate(-96.062 -37.987)" fill="#ffd000"/>
              <path d="M210.075,89.5a2.075,2.075,0,1,0,2.075,2.075,2.075,2.075,0,0,0-2.075-2.075" transform="translate(-92.292 -41.545)" fill="#5d7074"/>
              <path d="M210.075,97.9a2.075,2.075,0,1,0,2.075,2.075,2.075,2.075,0,0,0-2.075-2.075" transform="translate(-92.292 -45.103)" fill="#5d7074"/>
              <path d="M218.975,89.5a2.075,2.075,0,1,0,2.075,2.075,2.075,2.075,0,0,0-2.075-2.075" transform="translate(-96.062 -41.545)" fill="#5d7074"/>
              <path d="M218.975,97.9a2.075,2.075,0,1,0,2.075,2.075,2.075,2.075,0,0,0-2.075-2.075" transform="translate(-96.062 -45.103)" fill="#5d7074"/>
              <path d="M227.775,22.3a2.075,2.075,0,1,0,2.075,2.075,2.075,2.075,0,0,0-2.075-2.075" transform="translate(-99.789 -13.079)" fill="#ffd000"/>
              <path d="M227.775,30.6a2.075,2.075,0,1,0,2.075,2.075,2.075,2.075,0,0,0-2.075-2.075" transform="translate(-99.789 -16.595)" fill="#ffd000"/>
              <path d="M236.675,22.3a2.075,2.075,0,1,0,2.075,2.075,2.075,2.075,0,0,0-2.075-2.075" transform="translate(-103.559 -13.079)" fill="#ffd000"/>
              <path d="M236.675,30.6a2.075,2.075,0,1,0,2.075,2.075,2.075,2.075,0,0,0-2.075-2.075" transform="translate(-103.559 -16.595)" fill="#ffd000"/>
              <path d="M212.15,108.375a2.075,2.075,0,0,0-4.15,0Z" transform="translate(-92.292 -48.661)" fill="#5d7074"/>
              <path d="M221.05,108.375a2.075,2.075,0,1,0-4.15,0Z" transform="translate(-96.062 -48.661)" fill="#5d7074"/>
              <path d="M210.075,89.6a2.075,2.075,0,1,0,2.075,2.075,2.075,2.075,0,0,0-2.075-2.075" transform="translate(-92.292 -41.587)" fill="#ffd000"/>
              <path d="M218.975,89.6a2.075,2.075,0,1,0,2.075,2.075,2.075,2.075,0,0,0-2.075-2.075" transform="translate(-96.062 -41.587)" fill="#ffd000"/>
              <path d="M210.075,98a2.075,2.075,0,1,0,2.075,2.075A2.075,2.075,0,0,0,210.075,98" transform="translate(-92.292 -45.145)" fill="#ffd000"/>
              <path d="M210.075,106.4a2.075,2.075,0,1,0,2.075,2.075,2.075,2.075,0,0,0-2.075-2.075" transform="translate(-92.292 -48.703)" fill="#ffd000"/>
              <path d="M218.975,98a2.075,2.075,0,1,0,2.075,2.075A2.075,2.075,0,0,0,218.975,98" transform="translate(-96.062 -45.145)" fill="#ffd000"/>
              <path d="M218.975,106.4a2.075,2.075,0,1,0,2.075,2.075,2.075,2.075,0,0,0-2.075-2.075" transform="translate(-96.062 -48.703)" fill="#ffd000"/>
              <path d="M212.15,116.875a2.075,2.075,0,0,0-4.15,0Z" transform="translate(-92.292 -52.262)" fill="#ffd000"/>
              <path d="M221.05,116.875a2.075,2.075,0,0,0-4.15,0Z" transform="translate(-96.062 -52.262)" fill="#ffd000"/>
              <rect width="9.568" height="54.886" transform="translate(92.133 9.221)" fill="#fff"/>
              <path d="M109.6,22.3v8.358h9.28V77.635h9.568V30.658h9.223V22.3Z" transform="translate(-50.611 -13.079)" fill="#fff"/>
              <rect width="9.568" height="55.087" transform="translate(44.464 9.221)" fill="#fff"/>
              <path d="M38.7,21C28.669,21,24,27.4,24,35.295V64a9.771,9.771,0,0,0,.058,1.268H24c0,7.9,4.611,12.969,14.7,12.969s14.237-5.649,14.237-14.007h0V57.6H43.31v6.744c0,3.631-1.153,5.649-4.611,5.649s-5.072-2.017-5.072-6.168V35.583c0-4.15,1.21-6.168,5.072-6.168,2.479,0,4.611,2.017,4.611,6.744v4.323h9.626V36.275C52.936,27.917,48.324,21,38.7,21" transform="translate(-14.351 -12.529)" fill="#fff"/>
              <path d="M502.17,44.909l-1.153-.922a55.733,55.733,0,0,1-4.611-4.957,7.9,7.9,0,0,1-1.268-4.265,5.692,5.692,0,0,1,1.5-4.323,2.794,2.794,0,0,1,2.19-1.038c2.94-.346,6.571.922,8.185,6.052l5.879-4.208a15.7,15.7,0,0,0-5.879-8.127h0l-1.672-.807a11.3,11.3,0,0,0-4.554-1.383c-9.4-.922-14.814,5.015-14.814,13.891s7.032,14.526,12.623,19.31l1.1.98a55.85,55.85,0,0,1,4.554,4.957,7.9,7.9,0,0,1,1.326,4.265,6.225,6.225,0,0,1-1.038,3.8,6.341,6.341,0,0,1-3.343,1.672H500.9a12.451,12.451,0,0,1-2.536-.173,5.707,5.707,0,0,1-2.709-2.017h0a11.372,11.372,0,0,1-2.017-6.225L485.8,62.778c.173,3.286,2.19,14.871,12.854,15.39h1.326c9.4,0,14.814-5.015,14.814-13.891s-7.032-14.526-12.623-19.252" transform="translate(-209.965 -12.459)" fill="#ffd000"/>
              <path d="M457.339,38.885v-1.1c-.173-4.093-1.038-7.32-2.594-9.741h-.058c-2.479-3.8-6.686-5.649-12.45-5.649H428V78.023h14.237c5.764,0,9.972-1.845,12.45-5.649h.058a19.687,19.687,0,0,0,2.594-9.741V38.885M440.912,68.4h-3.343V30.239h3.343c5.13,0,6.859,1.9,6.859,7.782v22.6c0,5.879-1.787,7.782-6.859,7.782" transform="translate(-185.482 -13.122)" fill="#ffd000"/>
              <path d="M318.768,53.368h12.393V45.011H318.768V30.658H334.85V22.3H309.2V77.751h26.745V69.738H318.768Z" transform="translate(-135.159 -13.079)" fill="#ffd000"/>
              <path d="M386.051,59.709h-.173L374.177,22.3H365.3V77.4h8.646v-29.4l.173-2.594,10.2,32.394H394.7V22.3h-8.646Z" transform="translate(-158.923 -13.079)" fill="#ffd000"/>
              <path d="M278.685,38.828c0-11.874-5.476-16.428-16.2-16.428H249V77.908h9.568V55.255a45.768,45.768,0,0,0,4.957-.231l5.072,22.6h9.568l-6.225-24.786c3.228-1.441,6.686-5.072,6.686-14.064m-16.6,8.646h-3.4V30.239h3.4c5.188,0,7.09,1.9,7.09,8.588s-1.9,8.588-7.09,8.588" transform="translate(-109.659 -13.122)" fill="#ffd000"/>
            </g>
          </g>
        </g>
      </g>
    </g>
  </g>
</svg>
